<svg width="16" height="18" viewBox="0 0 16 18" fill="none" xmlns="http://www.w3.org/2000/svg">
<path d="M1.33333 17.7778C0.977778 17.7778 0.666667 17.6444 0.4 17.3778C0.133333 17.1111 0 16.8 0 16.4444V2.66667C0 2.31111 0.133333 2 0.4 1.73333C0.666667 1.46667 0.977778 1.33333 1.33333 1.33333H2.77778V0H4.22222V1.33333H11.7778V0H13.2222V1.33333H14.6667C15.0222 1.33333 15.3333 1.46667 15.6 1.73333C15.8667 2 16 2.31111 16 2.66667V16.4444C16 16.8 15.8667 17.1111 15.6 17.3778C15.3333 17.6444 15.0222 17.7778 14.6667 17.7778H1.33333ZM1.33333 16.4444H14.6667V6.88889H1.33333V16.4444ZM1.33333 5.55556H14.6667V2.66667H1.33333V5.55556Z" fill="black"/>
</svg>
