<svg xmlns="http://www.w3.org/2000/svg" version="1.1" width="20px" height="20px" viewBox="0 0 46 38" style="shape-rendering:geometricPrecision; text-rendering:geometricPrecision; image-rendering:optimizeQuality; fill-rule:evenodd; clip-rule:evenodd" xmlns:xlink="http://www.w3.org/1999/xlink">
  <g><path style="opacity:1" fill="#fefaf7" d="M -0.5,-0.5 C 14.8333,-0.5 30.1667,-0.5 45.5,-0.5C 45.5,12.1667 45.5,24.8333 45.5,37.5C 30.1667,37.5 14.8333,37.5 -0.5,37.5C -0.5,24.8333 -0.5,12.1667 -0.5,-0.5 Z"/></g>
  <g><path style="opacity:1" fill="#636a73" d="M 4.5,2.5 C 16.8378,2.33346 29.1712,2.50012 41.5,3C 42,3.5 42.5,4 43,4.5C 43.6667,13.8333 43.6667,23.1667 43,32.5C 42.5,33 42,33.5 41.5,34C 29.1667,34.6667 16.8333,34.6667 4.5,34C 3.17777,23.5001 3.17777,13.0001 4.5,2.5 Z"/></g>
  <g><path style="opacity:1" fill="#00008B" d="M 6.5,9.5 C 17.8333,9.5 29.1667,9.5 40.5,9.5C 40.5,16.8333 40.5,24.1667 40.5,31.5C 29.1667,31.5 17.8333,31.5 6.5,31.5C 6.5,24.1667 6.5,16.8333 6.5,9.5 Z"/></g>
  <g><path style="opacity:1" fill="#00008B" d="M 18.5,15.5 C 24.4717,14.3089 26.805,16.4756 25.5,22C 27.9938,24.4231 27.9938,26.7564 25.5,29C 23.1902,29.4966 20.8568,29.6633 18.5,29.5C 18.5,24.8333 18.5,20.1667 18.5,15.5 Z"/></g>
  <g><path style="opacity:1" fill="#00008B" d="M 20.5,17.5 C 21.8333,17.5 23.1667,17.5 24.5,17.5C 25.2436,20.9496 23.9103,22.6162 20.5,22.5C 20.5,20.8333 20.5,19.1667 20.5,17.5 Z"/></g>
  <g><path style="opacity:1" fill="#00008B" d="M 20.5,23.5 C 23.9496,22.7564 25.6162,24.0897 25.5,27.5C 23.8333,27.5 22.1667,27.5 20.5,27.5C 20.5,26.1667 20.5,24.8333 20.5,23.5 Z"/></g>
</svg>