<svg fill="none" height="76" viewBox="0 0 259 280" width="70" xmlns="http://www.w3.org/2000/svg"><path clip-rule="evenodd" d="m24.2079 270.207h-5.033-.0124v-4.277l11.1497.054v13.676h-4.2315v-2.491c-.2658.278-.5523.556-.8596.833-.6727.585-1.4908 1.07-2.4334 1.434-.9593.373-2.1427.564-3.5131.564-2.3296 0-4.3851-.539-6.1084-1.6-1.7275-1.065-3.0729-2.594-4.00726-4.538-.92603-1.927-1.39527-4.231-1.39527-6.85 0-2.657.49416-4.994 1.47001-6.946.97172-1.96 2.36282-3.498 4.13182-4.571 1.769-1.065 3.8494-1.604 6.1832-1.604 1.5157 0 2.9151.245 4.1567.725 1.2541.485 2.3587 1.157 3.2722 1.985.9302.838 1.6652 1.795 2.1926 2.852.5274 1.048.818 2.167.872 3.319l.0208.435h-6.0378l-.0623-.339c-.1329-.713-.407-1.38-.8139-1.981-.3987-.593-.9178-1.078-1.5365-1.43-.6146-.352-1.3454-.531-2.1759-.531-1.005 0-1.931.261-2.7407.775-.8056.51-1.4576 1.351-1.9351 2.495-.4859 1.169-.7309 2.74-.7309 4.679 0 1.579.162 2.897.4817 3.925.3114 1.011.7392 1.819 1.2665 2.403.5233.581 1.1171.991 1.7732 1.219.6644.244 1.3662.369 2.0887.369.6686 0 1.2707-.112 1.7898-.328.5232-.224.98-.514 1.3537-.866.3779-.356.6769-.746.8845-1.152.216-.41.3488-.816.3987-1.21zm20.8779-16.312c2.3545 0 4.4349.534 6.179 1.587 1.7524 1.061 3.1311 2.59 4.0861 4.546.9468 1.935 1.4285 4.281 1.4285 6.967 0 2.648-.4734 4.969-1.4119 6.9-.9467 1.948-2.3171 3.469-4.0736 4.521-1.7441 1.053-3.837 1.583-6.2123 1.583-2.396 0-4.5014-.534-6.2537-1.583-1.7524-1.044-3.1352-2.557-4.0986-4.505-.9468-1.927-1.4285-4.252-1.4285-6.912 0-2.673.4858-5.015 1.4492-6.954.9676-1.956 2.3545-3.486 4.1194-4.551 1.7648-1.061 3.8536-1.599 6.2164-1.599zm0 21.185c1.117 0 2.0929-.265 2.8985-.787.8014-.523 1.4326-1.372 1.8811-2.516.4526-1.185.6852-2.772.6852-4.712 0-1.993-.2367-3.618-.6977-4.832-.4443-1.181-1.0796-2.056-1.8852-2.603-.8139-.543-1.7815-.82-2.8778-.82-1.1004 0-2.0721.277-2.886.82-.8098.543-1.4534 1.422-1.906 2.611-.4693 1.223-.706 2.843-.706 4.82 0 1.944.2367 3.531.7018 4.712.4526 1.148 1.0921 1.997 1.9019 2.515.8097.527 1.7814.792 2.8902.792zm23.7641-2.93-6.1624-17.829h-5.5977l8.654 25.251h6.1957l8.7287-25.251h-5.606zm30.3116-2.827h-10.2984v5.206l12.0429.016v5.027h-17.8025v-25.251h17.6315l-.016 4.99h-11.8268v5.089h10.2693zm22.4825-1.529c.685-.613 1.246-1.401 1.678-2.341.419-.933.635-2.081.635-3.419 0-1.497-.311-2.835-.93-3.983-.619-1.169-1.599-2.093-2.919-2.756-1.3-.647-2.973-.974-4.975-.974h-10.738v25.243h5.759v-9.404h4.24l3.991 9.404h6.046l-4.651-10.456c.673-.357 1.3-.8 1.864-1.314zm-3.513-5.64c0 .999-.336 1.79-1.025 2.428-.69.63-1.649.949-2.857.949h-4.095v-6.606h4.456c1.038 0 1.873.286 2.545.875.657.576.976 1.347.976 2.354zm15.159-7.833 10.527 15.23v-15.23h5.776v25.251h-5.086l-10.98-15.86v15.86h-5.759v-25.251zm33.949 16.461-5.29-16.461h-7.894v25.251h5.809v-16.266l5.124 16.266h4.485l5.162-16.357v16.357h5.826v-25.251h-7.878zm33.727-1.459h-10.298v5.206l12.046.016v5.027h-17.806v-25.251h17.636l-.021 4.99h-11.818v5.089h10.261zm21.494.228-10.523-15.23h-5.527v25.251h5.756v-15.86l10.979 15.86h5.087v-25.251h-5.772zm15.586-10.004h-7.388v-5.226h20.402v5.226h-7.217v20.025h-5.797z" fill="#002664" fill-rule="evenodd"/><path clip-rule="evenodd" d="m146.699 209.236c-1.482-2.395-3.717-4.571-6.64-6.465-2.919-1.894-6.897-3.34-11.81-4.297l-13.678-2.814c-4.132-.891-6.981-2.043-8.468-3.419-1.449-1.343-2.184-3.129-2.184-5.309 0-1.388.316-2.652.943-3.759.623-1.111 1.528-2.093 2.687-2.922 1.166-.828 2.616-1.483 4.306-1.943 1.711-.469 3.633-.705 5.714-.705 2.74 0 5.211.361 7.346 1.078 2.109.713 3.857 1.881 5.194 3.481 1.338 1.6 2.16 3.775 2.442 6.465l.038.373h16.971l-.008-.427c-.075-4.575-1.371-8.773-3.85-12.474-2.483-3.705-6.141-6.681-10.879-8.852-4.726-2.164-10.623-3.262-17.528-3.262-5.801 0-11.117 1.011-15.805 3.009-4.7007 2.002-8.4754 4.89-11.212 8.587-2.749 3.717-4.1193 8.164-4.0778 13.224.1121 6.175 1.9891 11.186 5.5769 14.903 3.5754 3.697 8.4759 6.158 14.5669 7.306l13.795 2.81c2.529.502 4.825 1.16 6.823 1.96 1.96.784 3.525 1.803 4.651 3.03 1.1 1.197 1.657 2.772 1.657 4.67 0 2.114-.694 3.9-2.06 5.301-1.4 1.434-3.301 2.515-5.643 3.224-2.388.721-5.058 1.086-7.936 1.086-2.807 0-5.394-.435-7.686-1.297-2.28-.85-4.194-2.093-5.689-3.693-1.491-1.591-2.513-3.585-3.04-5.918l-.075-.327h-17.2953l.0457.46c.4069 4.045 1.6652 7.629 3.7373 10.659 2.068 3.009 4.7173 5.545 7.8733 7.551 3.1476 1.993 6.677 3.514 10.494 4.513 3.807.994 7.744 1.5 11.693 1.5 6.466 0 12.2-1.019 17.046-3.034 4.867-2.022 8.717-4.807 11.449-8.276 2.753-3.493 4.148-7.476 4.148-11.848 0-2.064-.232-4.36-.697-6.822-.478-2.482-1.466-4.948-2.936-7.327zm-120.7622-17.473 36.9164 53.312h15.0157v-79.724h-16.7972v51.282l-35.3176-51.103-.1246-.179h-16.44005v79.724h16.74735zm196.6372 24.577 14.388-50.987h16.457l-23.587 79.724h-13.367l-14.554-50.469-14.659 50.469h-13.147l-23.533-79.724h16.511l14.384 50.979 14.389-50.979h12.167z" fill="#002664" fill-rule="evenodd"/><g fill="#d7153a"><path d="m122.291 145.572c-19.75-2.424-38.9345 3.904-72.6908-5.263-3.4466-.937-4.7173 2.694-2.8528 5.736 9.0692 14.803 54.8806 3.203 75.6346 1.065.906-.095.814-1.426-.091-1.538z"/><path d="m59.8819 119.132c-6.8642-10.058-12.4743-21.3102-16.8179-33.6891-13.1014 3.8251-26.51 9.3453-40.15955 16.5691-1.76484.932-2.8486683 2.681-2.90265176 4.67-.04983084 1.99.93848076 3.788 2.65349176 4.812 26.43111 15.802 52.27261 24.841 76.93051 26.933-7.3417-4.475-14.073-11.044-19.7039-19.295z"/><path d="m23.0586 85.5128c6.0461-2.4161 12.0383-4.4883 17.9765-6.233-2.1261-6.8961-3.8702-14.1195-5.2489-21.658-6.8268-.8495-13.8903-1.4007-21.1989-1.6411-.0623 0-.1287-.0041-.191-.0041-1.9143 0-3.6418.9614-4.64672 2.6026-1.03814 1.6908-1.08382 3.7422-.12042 5.4828 4.24394 7.6586 8.72454 14.8075 13.42944 21.4508z"/><path d="m88.0053 135.572c4.0986 1.807 8.2927 2.818 12.3577 3.029-9.9533-7.12-17.7726-19.192-22.2782-34.58-5.8053-19.8092-7.7445-41.6661-5.8302-65.247-7.8318-4.9358-16.3196-9.5567-25.4594-13.8501-1.7649-.8289-3.783-.6673-5.4025.431-1.6154 1.0941-2.5082 2.9051-2.3878 4.8405 2.1262 34.2151 10.9504 62.9142 26.2236 85.2976 6.4032 9.391 14.2807 16.332 22.7768 20.079z"/><path d="m125.713 95.261c-2.027-4.7244-4.261-9.1795-7.728-14.1858-9.809-14.161-23.0262-26.9336-39.4746-38.1853-.1702 2.6523-2.5704 31.2975 5.851 59.3041 6.4074 21.302 17.3536 29.98 23.3536 33.333 6.038 3.369 11.561 4.165 18.039 2.557-6.565-8.935-5.747-27.27-.041-42.823z"/><path d="m107.488 23.5772c-4.685-5.6777-9.7673-11.2931-15.2528-16.84233-1.0631-1.07751-2.4334-1.64942-3.8495-1.64942-.5066 0-1.0173.0746-1.524.22379-1.9226.56777-3.3137 2.10529-3.7331 4.11526-1.0714 5.1638-3.1103 15.6902-4.0114 26.1006 7.0137 4.6126 13.4917 9.4904 19.4257 14.621 2.3001-8.7568 5.2901-17.6297 8.9451-26.5689z"/><path d="m129.144 87.2286c6.64-13.0918 17.246-24.8283 25.21-32.2424-4.372-17.7789-11.104-34.5508-20.397-52.09764-.959-1.81105-2.762-2.88856-4.809-2.88856s-3.845 1.08165-4.808 2.88856c-9.389 17.60484-16.237 35.12264-20.377 52.09344 8.313 7.6876 19.28 20.2241 25.181 32.2466z"/><path d="m179.214 35.5207c-.901-10.4062-2.94-20.9327-4.011-26.10059-.416-2.00998-1.811-3.5475-3.733-4.11527-.507-.14919-1.018-.22379-1.524-.22379-1.416 0-2.787.57191-3.85 1.64942-5.485 5.54913-10.568 11.16463-15.252 16.84233 3.654 8.9392 6.644 17.8121 8.949 26.5648 5.934-5.1265 12.407-10.0043 19.421-14.6169z"/><path d="m153.541 133.686c6.885-4.833 13.77-13.254 18.139-24.97 8.458-22.6813 9.334-47.9448 8.122-65.8232-15.331 10.2157-39.665 31.5504-47.975 54.3604-3.911 10.7338-5.734 25.3548-2.72 33.5108 1.259 3.411 3.401 5.997 6.345 7.227 4.46 1.865 11.312.456 18.089-4.305z"/><path d="m180.247 104.025c-4.505 15.384-12.329 27.46-22.278 34.58 4.065-.211 8.263-1.227 12.358-3.034 8.496-3.746 16.373-10.688 22.777-20.075 15.273-22.3828 24.097-51.0818 26.223-85.297.121-1.9353-.772-3.7464-2.388-4.8405-1.619-1.0982-3.637-1.2598-5.402-.431-9.14 4.2894-17.628 8.9102-25.46 13.8502 1.915 23.5809-.029 45.4336-5.83 65.2473z"/><path d="m235.273 85.5133c4.705-6.6433 9.186-13.7963 13.43-21.4549.963-1.7406.922-3.7879-.121-5.4829-1.005-1.637-2.732-2.6026-4.646-2.6026-.063 0-.129 0-.191.0041-7.309.2404-14.377.7957-21.199 1.6412-1.375 7.5384-3.123 14.7619-5.249 21.6579 5.938 1.7489 11.934 3.8252 17.976 6.2372z"/><path d="m255.42 102.007c-13.65-7.2234-27.058-12.7436-40.16-16.5688-4.343 12.379-9.953 23.6308-16.818 33.6888-5.63 8.255-12.362 14.82-19.708 19.296 24.658-2.093 50.5-11.132 76.931-26.934 1.715-1.024 2.707-2.822 2.653-4.811-.045-1.99-1.133-3.734-2.898-4.671z"/><path d="m208.735 140.309c-33.756 9.167-52.941 2.839-72.691 5.263-.905.112-1 1.447-.091 1.538 20.759 2.138 66.566 13.738 75.635-1.065 1.864-3.042.594-6.673-2.853-5.736z"/></g></svg>
