<svg width="20" height="20" viewBox="0 0 20 20" fill="none" xmlns="http://www.w3.org/2000/svg">
<g id="architecture_FILL0_wght400_GRAD0_opsz24 1">
<path id="Vector" d="M9.25 9.91667L7 16.125C6.98611 16.1667 6.95139 16.2153 6.89583 16.2708L6.22917 16.9167C6.10417 17.0417 5.96181 17.0729 5.80208 17.0104C5.64236 16.9479 5.54861 16.8333 5.52083 16.6667L5.4375 15.7708L5.45833 15.5833L7.79167 9.125C8 9.31944 8.22569 9.48264 8.46875 9.61458C8.71181 9.74653 8.97222 9.84722 9.25 9.91667ZM10 9.16667C9.30556 9.16667 8.71528 8.92361 8.22917 8.4375C7.74306 7.95139 7.5 7.36111 7.5 6.66667C7.5 6.125 7.65625 5.64236 7.96875 5.21875C8.28125 4.79514 8.68056 4.5 9.16667 4.33333V3.33333C9.16667 3.09722 9.24653 2.89931 9.40625 2.73958C9.56597 2.57986 9.76389 2.5 10 2.5C10.2361 2.5 10.434 2.57986 10.5938 2.73958C10.7535 2.89931 10.8333 3.09722 10.8333 3.33333V4.33333C11.3194 4.5 11.7188 4.79514 12.0312 5.21875C12.3438 5.64236 12.5 6.125 12.5 6.66667C12.5 7.36111 12.2569 7.95139 11.7708 8.4375C11.2847 8.92361 10.6944 9.16667 10 9.16667ZM10 7.5C10.2361 7.5 10.434 7.42014 10.5938 7.26042C10.7535 7.10069 10.8333 6.90278 10.8333 6.66667C10.8333 6.43056 10.7535 6.23264 10.5938 6.07292C10.434 5.91319 10.2361 5.83333 10 5.83333C9.76389 5.83333 9.56597 5.91319 9.40625 6.07292C9.24653 6.23264 9.16667 6.43056 9.16667 6.66667C9.16667 6.90278 9.24653 7.10069 9.40625 7.26042C9.56597 7.42014 9.76389 7.5 10 7.5ZM10.75 9.91667C11.0278 9.84722 11.2882 9.74653 11.5312 9.61458C11.7743 9.48264 12 9.31944 12.2083 9.125L14.5417 15.5833C14.5556 15.625 14.5625 15.6875 14.5625 15.7708L14.4792 16.6667C14.4514 16.8333 14.3576 16.9479 14.1979 17.0104C14.0382 17.0729 13.8958 17.0417 13.7708 16.9167L13.1042 16.2708L13 16.125L10.75 9.91667Z" fill="#495054"/>
</g>
</svg>
