<svg width="32" height="32" viewBox="0 0 32 32" fill="none" xmlns="http://www.w3.org/2000/svg">
<title>Legend Icon Description</title>
<g id="home_pin_FILL0_wght400_GRAD0_opsz24 1">
<path id="Vector" d="M12 17.3327H14.6667V13.666H17.3334V17.3327H20V10.9993L16 8.33268L12 10.9993V17.3327ZM16 25.7994C18.7112 23.3105 20.7223 21.0494 22.0334 19.016C23.3445 16.9827 24 15.1771 24 13.5993C24 11.1771 23.2278 9.19379 21.6834 7.64935C20.1389 6.1049 18.2445 5.33268 16 5.33268C13.7556 5.33268 11.8612 6.1049 10.3167 7.64935C8.77226 9.19379 8.00004 11.1771 8.00004 13.5993C8.00004 15.1771 8.6556 16.9827 9.96671 19.016C11.2778 21.0494 13.2889 23.3105 16 25.7994ZM16 28.4327C15.6889 28.4327 15.3778 28.3771 15.0667 28.266C14.7556 28.1549 14.4778 27.9882 14.2334 27.766C12.7889 26.4327 11.5112 25.1327 10.4 23.866C9.28893 22.5993 8.36115 21.3716 7.61671 20.1827C6.87226 18.9938 6.3056 17.8493 5.91671 16.7493C5.52782 15.6493 5.33337 14.5993 5.33337 13.5993C5.33337 10.266 6.4056 7.61046 8.55004 5.63268C10.6945 3.6549 13.1778 2.66602 16 2.66602C18.8223 2.66602 21.3056 3.6549 23.45 5.63268C25.5945 7.61046 26.6667 10.266 26.6667 13.5993C26.6667 14.5993 26.4723 15.6493 26.0834 16.7493C25.6945 17.8493 25.1278 18.9938 24.3834 20.1827C23.6389 21.3716 22.7112 22.5993 21.6 23.866C20.4889 25.1327 19.2112 26.4327 17.7667 27.766C17.5223 27.9882 17.2445 28.1549 16.9334 28.266C16.6223 28.3771 16.3112 28.4327 16 28.4327Z" fill="#000"/>
</g>
</svg>
