<svg width="20" height="20" viewBox="0 0 20 20" fill="none" xmlns="http://www.w3.org/2000/svg">
<g id="location_on_FILL0_wght400_GRAD0_opsz24 (2) 1">
<path id="Vector" d="M10.0007 16.1244C11.6951 14.5688 12.952 13.1556 13.7715 11.8848C14.5909 10.6139 15.0007 9.48546 15.0007 8.49935C15.0007 6.98546 14.518 5.74588 13.5527 4.7806C12.5875 3.81532 11.4034 3.33268 10.0007 3.33268C8.59787 3.33268 7.41385 3.81532 6.44857 4.7806C5.48329 5.74588 5.00065 6.98546 5.00065 8.49935C5.00065 9.48546 5.41037 10.6139 6.22982 11.8848C7.04926 13.1556 8.30621 14.5688 10.0007 16.1244ZM10.0007 17.7702C9.80621 17.7702 9.61176 17.7355 9.41732 17.666C9.22287 17.5966 9.04926 17.4924 8.89648 17.3535C7.99371 16.5202 7.1951 15.7077 6.50065 14.916C5.80621 14.1244 5.22635 13.357 4.76107 12.6139C4.29579 11.8709 3.94162 11.1556 3.69857 10.4681C3.45551 9.7806 3.33398 9.12435 3.33398 8.49935C3.33398 6.41602 4.00412 4.75629 5.3444 3.52018C6.68468 2.28407 8.23676 1.66602 10.0007 1.66602C11.7645 1.66602 13.3166 2.28407 14.6569 3.52018C15.9972 4.75629 16.6673 6.41602 16.6673 8.49935C16.6673 9.12435 16.5458 9.7806 16.3027 10.4681C16.0597 11.1556 15.7055 11.8709 15.2402 12.6139C14.775 13.357 14.1951 14.1244 13.5007 14.916C12.8062 15.7077 12.0076 16.5202 11.1048 17.3535C10.952 17.4924 10.7784 17.5966 10.584 17.666C10.3895 17.7355 10.1951 17.7702 10.0007 17.7702ZM10.0007 9.99935C10.459 9.99935 10.8513 9.83616 11.1777 9.50977C11.5041 9.18338 11.6673 8.79102 11.6673 8.33268C11.6673 7.87435 11.5041 7.48199 11.1777 7.1556C10.8513 6.82921 10.459 6.66602 10.0007 6.66602C9.54232 6.66602 9.14996 6.82921 8.82357 7.1556C8.49718 7.48199 8.33398 7.87435 8.33398 8.33268C8.33398 8.79102 8.49718 9.18338 8.82357 9.50977C9.14996 9.83616 9.54232 9.99935 10.0007 9.99935Z" fill="currentColor"/>
</g>
</svg>
