<svg width="18" height="18" viewBox="0 0 18 18" fill="none" xmlns="http://www.w3.org/2000/svg">
<path d="M2 18C1.45 18 0.979167 17.8042 0.5875 17.4125C0.195833 17.0208 0 16.55 0 16V6C0 5.45 0.195833 4.97917 0.5875 4.5875C0.979167 4.19583 1.45 4 2 4H4V2C4 1.45 4.19583 0.979167 4.5875 0.5875C4.97917 0.195833 5.45 0 6 0H12C12.55 0 13.0208 0.195833 13.4125 0.5875C13.8042 0.979167 14 1.45 14 2V8H16C16.55 8 17.0208 8.19583 17.4125 8.5875C17.8042 8.97917 18 9.45 18 10V16C18 16.55 17.8042 17.0208 17.4125 17.4125C17.0208 17.8042 16.55 18 16 18H10V14H8V18H2ZM2 16H4V14H2V16ZM2 12H4V10H2V12ZM2 8H4V6H2V8ZM6 12H8V10H6V12ZM6 8H8V6H6V8ZM6 4H8V2H6V4ZM10 12H12V10H10V12ZM10 8H12V6H10V8ZM10 4H12V2H10V4ZM14 16H16V14H14V16ZM14 12H16V10H14V12Z" fill="#495054"/>
</svg>
