<svg width="40" height="48" viewBox="0 0 40 48" fill="none" xmlns="http://www.w3.org/2000/svg">
<path d="M20 47.5L8.09215 26.875L31.9079 26.875L20 47.5Z" fill="#2E808E"/>
<circle cx="20" cy="20" r="19" fill="white" stroke="#2E808E" stroke-width="2"/>
<path d="M13 28C12.45 28 11.9792 27.8042 11.5875 27.4125C11.1958 27.0208 11 26.55 11 26V16C11 15.45 11.1958 14.9792 11.5875 14.5875C11.9792 14.1958 12.45 14 13 14H15V12C15 11.45 15.1958 10.9792 15.5875 10.5875C15.9792 10.1958 16.45 10 17 10H23C23.55 10 24.0208 10.1958 24.4125 10.5875C24.8042 10.9792 25 11.45 25 12V18H27C27.55 18 28.0208 18.1958 28.4125 18.5875C28.8042 18.9792 29 19.45 29 20V26C29 26.55 28.8042 27.0208 28.4125 27.4125C28.0208 27.8042 27.55 28 27 28H21V24H19V28H13ZM13 26H15V24H13V26ZM13 22H15V20H13V22ZM13 18H15V16H13V18ZM17 22H19V20H17V22ZM17 18H19V16H17V18ZM17 14H19V12H17V14ZM21 22H23V20H21V22ZM21 18H23V16H21V18ZM21 14H23V12H21V14ZM25 26H27V24H25V26ZM25 22H27V20H25V22Z" fill="#2E808E"/>
</svg>
